<svg width="1024" height="1024" viewBox="0 0 1024 1024" fill="none" xmlns="http://www.w3.org/2000/svg">
  <defs>
    <linearGradient id="bg" x1="160" y1="120" x2="860" y2="900" gradientUnits="userSpaceOnUse">
      <stop offset="0" stop-color="#62BEFF"/>
      <stop offset="1" stop-color="#6A66FF"/>
    </linearGradient>
    <filter id="shadow" x="40" y="40" width="944" height="944" filterUnits="userSpaceOnUse">
      <feDropShadow dx="0" dy="28" stdDeviation="34" flood-color="#000000" flood-opacity="0.22"/>
    </filter>
  </defs>
  <rect x="112" y="96" width="800" height="800" rx="210" fill="url(#bg)" filter="url(#shadow)"/>
  <path d="M185 145C300 100 590 108 825 170C720 245 356 268 185 145Z" fill="white" opacity="0.20"/>
  
  <path d="M230 370C230 326 266 290 310 290H430C454 290 476 301 491 320L530 370H715C759 370 795 406 795 450V665C795 709 759 745 715 745H310C266 745 230 709 230 665V370Z" fill="white" fill-opacity="0.92"/>
  <rect x="280" y="455" width="465" height="50" rx="25" fill="#23395C" fill-opacity="0.17"/>
  <rect x="280" y="545" width="340" height="45" rx="22.5" fill="#23395C" fill-opacity="0.12"/>
  <circle cx="687.5" cy="587.5" r="72.5" stroke="#606EFF" stroke-width="38"/>
  <path d="M735 635L800 700" stroke="#606EFF" stroke-width="38" stroke-linecap="round"/>
  <circle cx="340" cy="635" r="16" fill="#34476C" fill-opacity="0.50"/>
  <circle cx="410" cy="635" r="16" fill="#34476C" fill-opacity="0.50"/>
  <circle cx="480" cy="635" r="16" fill="#34476C" fill-opacity="0.50"/>

  <rect x="115" y="99" width="794" height="794" rx="207" stroke="white" stroke-opacity="0.28" stroke-width="6"/>
</svg>